<?xml version="1.0" encoding="utf-8"?>
<!-- Generator: Adobe Illustrator 18.1.1, SVG Export Plug-In . SVG Version: 6.00 Build 0)  -->
<svg version="1.0" id="Capa_1" xmlns="http://www.w3.org/2000/svg" xmlns:xlink="http://www.w3.org/1999/xlink" x="0px" y="0px"
	 width="79.2px" height="128.6px" viewBox="0 0 79.2 128.6" style="enable-background:new 0 0 79.2 128.6;" xml:space="preserve">
<g>
	<g>
		<g>
			<g>
				<path style="fill:#FFFFFF;" d="M-474.5,85.6V61.4h14.2c9,0,15.2,2,15.2,12.2c0,9.4-7.1,12-15.4,12H-474.5z M-486.5,128.6h12
					V96.4h13.8c14.7,0,27.6-6.3,27.6-22.5c0-16.2-11-23.2-26.7-23.2h-26.6V128.6z"/>
			</g>
		</g>
		<g>
			<g>
				<path style="fill:#FFFFFF;" d="M-415.6,50.6l0,51.1c0,16.8,8.2,27,26.6,27c18.4,0,26.6-10.2,26.6-27l0-51.1l-12,0l0,50.3
					c0,10.9-2.7,17-14.7,17.1c-12,0-14.6-6.2-14.7-17l0-50.3L-415.6,50.6z"/>
			</g>
		</g>
		<g id="XMLID_44_">
			<g>
				<path style="fill:#FFFFFF;" d="M-301.4,87.8c7.9,1.7,12,9.9,12,17.5c0,11.9-8,23.3-26.3,23.3l-29.3,0l0-78.1l24.4,0
					c14.8,0,29.3,5,29.3,22.3c0,6.6-3.7,12.5-10.1,14.7V87.8z M-317.9,117.8c8.6,0,16.5-2.1,16.5-12.5c0-10.9-7.9-13-17.1-13
					l-15.6,0l0,25.4L-317.9,117.8z M-318.3,82.6c7.5,0,15-0.8,15-10.3c0-9.7-9.1-10.9-16.6-10.9l-14.2,0l0,21.2L-318.3,82.6z"/>
			</g>
		</g>
		<g>
			<polygon style="fill:#FFFFFF;" points="-260.2,117.8 -260.2,50.6 -272.2,50.6 -272.2,128.6 -219.9,128.6 -219.9,117.8 			"/>
		</g>
		<g>
			<polygon style="fill:#FFFFFF;" points="-201.7,128.5 -189.7,128.5 -189.7,50.6 -201.7,50.6 			"/>
		</g>
		<g>
			<polygon style="fill:#FFFFFF;" points="-160.5,81.8 -160.5,50 -172.5,50 -172.4,128 -160.4,127.9 -160.4,93 -127,127.9 
				-110.5,127.9 -150.9,87.1 -112.9,49.9 -128.5,49.9 			"/>
		</g>
		<g>
			<path style="fill:#FFFFFF;" d="M-52.3,105.4l5.7,22.4h12.1L-56.1,50h-15.2l-21.5,77.8l12.1,0l5.6-22.4H-52.3z M-55,94.7l-17.3,0
				l8.6-33.7h0.2L-55,94.7z"/>
		</g>
		<g>
			<path style="fill:#DAA2A1;" d="M29.3,78.6c0,0,20.6,20.6,20.6,20.6L0,127.9L29.3,78.6z"/>
			<path style="fill:#C24227;" d="M49.9,99.2c0,0-20.6-20.6-20.6-20.6l49.9-28.7L49.9,99.2z"/>
		</g>
		<g>
			<polygon style="fill:#FFFFFF;" points="-389.5,42 -374.3,0 -403.6,0 			"/>
		</g>
	</g>
</g>
</svg>
