<?xml version="1.0" encoding="utf-8"?>
<!-- Generator: Adobe Illustrator 18.1.1, SVG Export Plug-In . SVG Version: 6.00 Build 0)  -->
<svg version="1.1" xmlns="http://www.w3.org/2000/svg" xmlns:xlink="http://www.w3.org/1999/xlink" x="0px" y="0px" width="646px"
	 height="139px" viewBox="-110 171.4 646 139" enable-background="new -110 171.4 646 139" xml:space="preserve">
<g id="Capa_2">
	<rect x="-110" y="171.4" opacity="0.33" width="646" height="139"/>
</g>
<g id="Capa_1">
	<g>
		<g>
			<g>
				<g>
					<path fill="#FFFFFF" d="M-24,262v-24.2h14.2c9,0,15.2,2,15.2,12.2c0,9.4-7.1,12-15.4,12H-24z M-36,305h12v-32.2h13.8
						c14.7,0,27.6-6.3,27.6-22.5s-11-23.2-26.7-23.2H-36V305z"/>
				</g>
			</g>
			<g>
				<g>
					<path fill="#FFFFFF" d="M34.9,227v51.1c0,16.8,8.2,27,26.6,27s26.6-10.2,26.6-27V227h-12v50.3c0,10.9-2.7,17-14.7,17.1
						c-12,0-14.6-6.2-14.7-17v-50.3L34.9,227z"/>
				</g>
			</g>
			<g id="XMLID_44_">
				<g>
					<path fill="#FFFFFF" d="M149,264.2c7.9,1.7,12,9.9,12,17.5c0,11.9-8,23.3-26.3,23.3h-29.3v-78.1h24.4c14.8,0,29.3,5,29.3,22.3
						c0,6.6-3.7,12.5-10.1,14.7L149,264.2L149,264.2z M132.5,294.2c8.6,0,16.5-2.1,16.5-12.5c0-10.9-7.9-13-17.1-13h-15.6v25.4
						L132.5,294.2z M132.1,259c7.5,0,15-0.8,15-10.3c0-9.7-9.1-10.9-16.6-10.9h-14.2V259H132.1z"/>
				</g>
			</g>
			<g>
				<polygon fill="#FFFFFF" points="190.3,294.2 190.3,227 178.3,227 178.3,305 230.6,305 230.6,294.2 				"/>
			</g>
			<g>
				<polygon fill="#FFFFFF" points="248.7,304.9 260.7,304.9 260.7,227 248.7,227 				"/>
			</g>
			<g>
				<polygon fill="#FFFFFF" points="290,258.2 290,226.4 278,226.4 278.1,304.4 290.1,304.3 290,269.4 323.4,304.3 339.9,304.3 
					299.6,263.5 337.5,226.3 322,226.3 				"/>
			</g>
			<g>
				<path fill="#FFFFFF" d="M398.1,281.8l5.7,22.4h12.1l-21.5-77.8h-15.2l-21.5,77.8h12.1l5.6-22.4H398.1z M395.5,271.1h-17.3
					l8.6-33.7h0.2L395.5,271.1z"/>
			</g>
			<g>
				<path fill="#DAA2A1" d="M479.8,255l20.6,20.6l-49.9,28.7L479.8,255z"/>
				<path fill="#C24227" d="M500.3,275.6L479.7,255l49.9-28.7L500.3,275.6z"/>
			</g>
			<g>
				<polygon fill="#FFFFFF" points="61,218.4 76.2,176.4 46.9,176.4 				"/>
			</g>
		</g>
	</g>
</g>
</svg>
