<?xml version="1.0" encoding="utf-8"?>
<!-- Generator: Adobe Illustrator 18.1.1, SVG Export Plug-In . SVG Version: 6.00 Build 0)  -->
<svg version="1.0" id="Capa_1" xmlns="http://www.w3.org/2000/svg" xmlns:xlink="http://www.w3.org/1999/xlink" x="0px" y="0px"
	 width="27.5px" height="25px" viewBox="0 0 27.5 25" style="enable-background:new 0 0 27.5 25;" xml:space="preserve">
<path style="fill:#B74229;" d="M23.5,14.2h-19c-0.7,0-1.3-0.6-1.3-1.3v0c0-0.7,0.6-1.3,1.3-1.3h19c0.7,0,1.3,0.6,1.3,1.3v0
	C24.8,13.6,24.2,14.2,23.5,14.2z"/>
<path style="fill:#B74229;" d="M23.5,7.7h-19c-0.7,0-1.3-0.6-1.3-1.3v0c0-0.7,0.6-1.3,1.3-1.3h19c0.7,0,1.3,0.6,1.3,1.3v0
	C24.8,7.2,24.2,7.7,23.5,7.7z"/>
<path style="fill:#B74229;" d="M23.5,20.5h-19c-0.7,0-1.3-0.6-1.3-1.3v0c0-0.7,0.6-1.3,1.3-1.3h19c0.7,0,1.3,0.6,1.3,1.3v0
	C24.8,19.9,24.2,20.5,23.5,20.5z"/>
</svg>
