<?xml version="1.0" encoding="utf-8"?>
<!-- Generator: Adobe Illustrator 18.1.1, SVG Export Plug-In . SVG Version: 6.00 Build 0)  -->
<svg version="1.0" id="Capa_1" xmlns="http://www.w3.org/2000/svg" xmlns:xlink="http://www.w3.org/1999/xlink" x="0px" y="0px"
	 width="156.1px" height="44.2px" viewBox="0 0 156.1 44.2" style="enable-background:new 0 0 156.1 44.2;" xml:space="preserve">
<g>
	<path style="fill:#FFFFFF;" d="M4.1,29.6v-8.3H9c3.1,0,5.3,0.7,5.3,4.2c0,3.3-2.5,4.1-5.3,4.1H4.1z M0,44.4h4.1V33.3h4.8
		c5.1,0,9.5-2.2,9.5-7.8c0-5.6-3.8-8-9.2-8H0V44.4z"/>
</g>
<g>
	<path style="fill:#FFFFFF;" d="M24.5,17.5l0,17.6c0,5.8,2.8,9.3,9.2,9.3c6.3,0,9.2-3.5,9.2-9.3l0-17.6l-4.1,0l0,17.4
		c0,3.8-0.9,5.9-5.1,5.9c-4.1,0-5.1-2.1-5.1-5.9l0-17.4L24.5,17.5z"/>
</g>
<g>
	<path style="fill:#FFFFFF;" d="M63.9,30.3c2.7,0.6,4.1,3.4,4.1,6c0,4.1-2.8,8-9.1,8l-10.1,0l0-27l8.4,0c5.1,0,10.1,1.7,10.1,7.7
		C67.4,27.4,66.1,29.5,63.9,30.3L63.9,30.3z M58.2,40.7c3,0,5.7-0.7,5.7-4.3c0-3.8-2.7-4.5-5.9-4.5l-5.4,0l0,8.8L58.2,40.7z
		 M58.1,28.5c2.6,0,5.2-0.3,5.2-3.5c0-3.3-3.1-3.8-5.7-3.8l-4.9,0l0,7.3L58.1,28.5z"/>
</g>
<polygon style="fill:#FFFFFF;" points="78.2,40.7 78.2,17.5 74,17.5 74,44.4 92.1,44.4 92.1,40.7 "/>
<rect x="98.4" y="17.5" style="fill:#FFFFFF;" width="4.1" height="26.9"/>
<polygon style="fill:#FFFFFF;" points="112.6,28.3 112.6,17.3 108.5,17.3 108.5,44.2 112.7,44.2 112.6,32.1 124.2,44.2 129.9,44.2 
	115.9,30.1 129.1,17.2 123.7,17.2 "/>
<path style="fill:#FFFFFF;" d="M150,36.4l2,7.7h4.2l-7.4-26.9h-5.3L136,44.2l4.2,0l1.9-7.7H150z M149.1,32.7l-6,0l3-11.6h0.1
	L149.1,32.7z"/>
<polygon style="fill:#FFFFFF;" points="33.5,14.5 38.8,0 28.6,0 "/>
</svg>
