<?xml version="1.0" encoding="utf-8"?>
<!-- Generator: Adobe Illustrator 18.1.1, SVG Export Plug-In . SVG Version: 6.00 Build 0)  -->
<svg version="1.0" id="Capa_1" xmlns="http://www.w3.org/2000/svg" xmlns:xlink="http://www.w3.org/1999/xlink" x="0px" y="0px"
	 width="319.6px" height="94.2px" viewBox="0 0 319.6 94.2" style="enable-background:new 0 0 319.6 94.2;" xml:space="preserve">
<g>
	<g>
		<g>
			<path style="fill:#575A5F;" d="M8.5,63.8V46.7h10c6.3,0,10.8,1.4,10.8,8.6c0,6.7-5,8.5-10.9,8.5H8.5z M0,94.2h8.5V71.4h9.8
				c10.4,0,19.5-4.5,19.5-15.9c0-11.5-7.8-16.4-18.9-16.4H0V94.2z"/>
		</g>
	</g>
</g>
<g>
	<g>
		<g>
			<path style="fill:#575A5F;" d="M50.1,39.1l0,36.1c0,11.9,5.8,19.1,18.8,19.1c13,0,18.8-7.2,18.8-19.1l0-36.1l-8.5,0l0,35.5
				c0,7.7-1.9,12.1-10.4,12.1c-8.5,0-10.4-4.4-10.4-12l0-35.5L50.1,39.1z"/>
		</g>
	</g>
</g>
<g id="XMLID_6_">
	<g>
		<g>
			<path style="fill:#575A5F;" d="M130.8,65.4c5.6,1.2,8.5,7,8.5,12.4c0,8.4-5.7,16.5-18.6,16.5l-20.7,0l0-55.2l17.2,0
				c10.4,0,20.7,3.6,20.7,15.8c0,4.6-2.7,8.9-7.2,10.4V65.4z M119.2,86.6c6.1,0,11.7-1.5,11.7-8.8c0-7.7-5.6-9.2-12.1-9.2l-11,0
				l0,18L119.2,86.6z M118.9,61.7c5.3,0,10.6-0.6,10.6-7.3c0-6.8-6.4-7.7-11.8-7.7l-10,0l0,15L118.9,61.7z"/>
		</g>
	</g>
</g>
<g>
	<g>
		<polygon style="fill:#575A5F;" points="160,86.6 160,39.1 151.5,39.1 151.5,94.2 188.5,94.2 188.5,86.6 		"/>
	</g>
</g>
<g>
	<g>
		<rect x="201.4" y="39.1" style="fill:#575A5F;" width="8.5" height="55.1"/>
	</g>
</g>
<g>
	<g>
		<polygon style="fill:#575A5F;" points="230.5,61.2 230.5,38.6 222.1,38.6 222.1,93.8 230.6,93.8 230.6,69 254.2,93.7 265.9,93.7 
			237.3,64.9 264.2,38.6 253.1,38.6 		"/>
	</g>
</g>
<g>
	<g>
		<path style="fill:#575A5F;" d="M307,77.9l4,15.8h8.5l-15.2-55h-10.8l-15.2,55l8.5,0l3.9-15.8H307z M305.1,70.2l-12.3,0l6.1-23.8
			h0.2L305.1,70.2z"/>
	</g>
</g>
<g>
	<g>
		<polygon style="fill:#575A5F;" points="68.6,33 79.3,3.3 58.6,3.3 		"/>
	</g>
</g>
</svg>
